<svg width="46" height="40" viewBox="0 0 46 40" fill="none" xmlns="http://www.w3.org/2000/svg">
<g clip-path="url(#clip0)">
<path d="M11.5405 40L34.5135 40L46 20L34.5135 1.00418e-06L11.5405 3.01254e-06L0.0540525 20L11.5405 40Z" fill="#82CA9C"/>
<path d="M14.6232 12.2214L14.6232 10.6428L20.4268 10.6428L20.4268 12.2214L18.3839 12.2214L18.3839 17.1428L16.6661 17.1428L16.6661 12.2214L14.6232 12.2214Z" fill="white"/>
<path d="M20.4689 10.6428L22.2796 10.6428L23.3474 13.4285L24.0439 13.4285L25.1117 10.6428L26.876 10.6428L24.3689 17.1428L22.6046 17.1428L23.4403 15.0071L22.1867 15.0071L20.4689 10.6428Z" fill="white"/>
<path d="M26.8288 12.2214L26.8288 10.6428L32.6324 10.6428L32.6324 12.2214L30.5896 12.2214L30.5896 17.1428L28.8717 17.1428L28.8717 12.2214L26.8288 12.2214Z" fill="white"/>
<path d="M6.68246 26.4285L6.68246 19.9285L11.9753 19.9285L11.9753 21.4143L8.40032 21.4143L8.40032 22.25L10.0718 22.25C10.8208 22.25 11.4089 22.445 11.836 22.835C12.2694 23.2188 12.486 23.7202 12.486 24.3393C12.486 24.9583 12.2694 25.4628 11.836 25.8528C11.4089 26.2366 10.8208 26.4285 10.0718 26.4285L6.68246 26.4285ZM8.40032 24.9428L9.97889 24.9428C10.2079 24.9428 10.3875 24.884 10.5175 24.7664C10.6537 24.6488 10.7218 24.5064 10.7218 24.3393C10.7218 24.1721 10.6537 24.0297 10.5175 23.9121C10.3875 23.7945 10.2079 23.7357 9.97889 23.7357L8.40032 23.7357L8.40032 24.9428Z" fill="white"/>
<path d="M12.7621 26.4285L14.5264 19.9285L17.6835 19.9285L19.4478 26.4285L17.6835 26.4285L17.3585 25.1285L14.8514 25.1285L14.5264 26.4285L12.7621 26.4285ZM15.2228 23.6428L16.9871 23.6428L16.4299 21.5071L15.7799 21.5071L15.2228 23.6428Z" fill="white"/>
<path d="M20.601 25.6393C19.9263 24.9831 19.5889 24.1628 19.5889 23.1785C19.5889 22.1943 19.9263 21.3771 20.601 20.7271C21.282 20.0709 22.1517 19.7428 23.2103 19.7428C24.3803 19.7428 25.2996 20.17 25.9682 21.0243C26.2653 21.4143 26.4758 21.8383 26.5996 22.2964L24.8353 22.2964C24.7425 22.1045 24.6279 21.9435 24.4917 21.8135C24.1636 21.4854 23.7365 21.3214 23.2103 21.3214C22.6717 21.3214 22.2353 21.4916 21.901 21.8321C21.5667 22.1726 21.3996 22.6214 21.3996 23.1785C21.3996 23.7357 21.5667 24.1845 21.901 24.525C22.2353 24.8654 22.6717 25.0357 23.2103 25.0357C23.7922 25.0357 24.2441 24.85 24.566 24.4785C24.7146 24.3114 24.8198 24.1257 24.8817 23.9214L26.646 23.9214C26.5098 24.4228 26.2901 24.8716 25.9867 25.2678C25.3244 26.1654 24.3989 26.6143 23.2103 26.6143C22.1517 26.6143 21.282 26.2893 20.601 25.6393Z" fill="white"/>
<path d="M27.53 26.4285L27.53 19.9285L29.2478 19.9285L29.2478 22.3428L29.9907 22.3428L31.5693 19.9285L33.5193 19.9285L31.4764 22.9928L33.6586 26.4285L31.7086 26.4285L30.0836 23.9214L29.2478 23.9214L29.2478 26.4285L27.53 26.4285Z" fill="white"/>
<path d="M34.6296 25.6114C33.9486 24.9366 33.6081 24.1257 33.6081 23.1785C33.6081 22.2314 33.9486 21.4235 34.6296 20.755C35.3167 20.0802 36.1834 19.7428 37.2296 19.7428C38.2758 19.7428 39.1393 20.0802 39.8203 20.755C40.5074 21.4235 40.851 22.2314 40.851 23.1785C40.851 24.1257 40.5074 24.9366 39.8203 25.6114C39.1393 26.28 38.2758 26.6143 37.2296 26.6143C36.1834 26.6143 35.3167 26.28 34.6296 25.6114ZM35.9203 21.8321C35.586 22.1726 35.4189 22.6214 35.4189 23.1785C35.4189 23.7357 35.586 24.1845 35.9203 24.525C36.2546 24.8654 36.691 25.0357 37.2296 25.0357C37.7681 25.0357 38.2046 24.8654 38.5389 24.525C38.8731 24.1845 39.0403 23.7357 39.0403 23.1785C39.0403 22.6214 38.8731 22.1726 38.5389 21.8321C38.2046 21.4916 37.7681 21.3214 37.2296 21.3214C36.691 21.3214 36.2546 21.4916 35.9203 21.8321Z" fill="white"/>
</g>
<defs>
<clipPath id="clip0">
<path d="M46 40L0.0540543 40L0.0540508 4.01672e-06L46 0L46 40Z" fill="white"/>
</clipPath>
</defs>
</svg>
