<svg width="40" height="47" viewBox="0 0 40 47" fill="none" xmlns="http://www.w3.org/2000/svg">
<g clip-path="url(#clip0)">
<path d="M-1.49868e-06 12.2316L-4.99559e-07 35.0888L20 46.5173L40 35.0888L40 12.2316L20 0.803045L-1.49868e-06 12.2316Z" fill="#FCAF26"/>
<path d="M7.28249 22L7.28249 15.5L12.5754 15.5L12.5754 16.9857L9.00035 16.9857L9.00035 17.8214L10.6718 17.8214C11.4208 17.8214 12.0089 18.0164 12.4361 18.4064C12.8694 18.7902 13.0861 19.2917 13.0861 19.9107C13.0861 20.5298 12.8694 21.0343 12.4361 21.4243C12.0089 21.8081 11.4208 22 10.6718 22L7.28249 22ZM9.00035 20.5143L10.5789 20.5143C10.808 20.5143 10.9875 20.4555 11.1175 20.3379C11.2537 20.2202 11.3218 20.0779 11.3218 19.9107C11.3218 19.7436 11.2537 19.6012 11.1175 19.4836C10.9875 19.366 10.808 19.3071 10.5789 19.3071L9.00035 19.3071L9.00035 20.5143Z" fill="white"/>
<path d="M13.9657 22L13.9657 15.5L18.98 15.5L18.98 17.0786L15.6835 17.0786L15.6835 18.0536L18.33 18.0536L18.33 19.4464L15.6835 19.4464L15.6835 20.4214L18.98 20.4214L18.98 22L13.9657 22Z" fill="white"/>
<path d="M19.9506 22L19.9506 15.5L23.1077 15.5C23.9063 15.5 24.5532 15.729 25.0485 16.1871C25.5499 16.639 25.8006 17.1993 25.8006 17.8679C25.8006 18.5364 25.5499 19.0998 25.0485 19.5579C24.5532 20.0098 23.9063 20.2357 23.1077 20.2357L21.6685 20.2357L21.6685 22L19.9506 22ZM21.6685 18.6571L23.0613 18.6571C23.3832 18.6571 23.6246 18.586 23.7856 18.4436C23.9527 18.3012 24.0363 18.1093 24.0363 17.8679C24.0363 17.6264 23.9527 17.4345 23.7856 17.2921C23.6246 17.1498 23.3832 17.0786 23.0613 17.0786L21.6685 17.0786L21.6685 18.6571Z" fill="white"/>
<path d="M26.6791 22L26.6791 15.5L28.397 15.5L28.397 18.7036L28.2577 19.5393H28.3505L30.7184 15.5L32.7148 15.5L32.7148 22L30.997 22L30.997 18.7964L31.1363 17.9607H31.0434L28.6755 22L26.6791 22Z" fill="white"/>
<path d="M3.75555 32.4L3.75555 29.7071L4.49841 29.7071L5.79841 24.7857L9.00198 24.7857L10.302 29.7071L11.0448 29.7071L11.0448 32.4L9.41984 32.4L9.41984 31.2857L5.38055 31.2857L5.38055 32.4L3.75555 32.4ZM6.12341 29.7071L8.67698 29.7071L7.79484 26.3643L7.00555 26.3643L6.12341 29.7071Z" fill="white"/>
<path d="M11.6941 31.2857L11.6941 24.7857L16.7084 24.7857L16.7084 26.3643L13.412 26.3643L13.412 27.3393L16.0584 27.3393L16.0584 28.7321L13.412 28.7321L13.412 29.7071L16.7084 29.7071L16.7084 31.2857L11.6941 31.2857Z" fill="white"/>
<path d="M17.1683 26.3643L17.1683 24.7857L22.9719 24.7857L22.9719 26.3643L20.929 26.3643L20.929 31.2857L19.2112 31.2857L19.2112 26.3643L17.1683 26.3643Z" fill="white"/>
<path d="M23.664 31.2857L23.664 24.7857L28.6783 24.7857L28.6783 26.3643L25.3818 26.3643L25.3818 27.3393L28.0283 27.3393L28.0283 28.7321L25.3818 28.7321L25.3818 29.7071L28.6783 29.7071L28.6783 31.2857L23.664 31.2857Z" fill="white"/>
<path d="M29.6489 31.2857L29.6489 24.7857L31.3668 24.7857L31.3668 27.9893L31.2275 28.825H31.3203L33.6882 24.7857L35.6846 24.7857L35.6846 31.2857L33.9668 31.2857L33.9668 28.0821L34.1061 27.2464H34.0132L31.6453 31.2857L29.6489 31.2857ZM30.9953 22.6964L32.1096 22.6964C32.1096 23.0369 32.2953 23.2071 32.6668 23.2071C33.0382 23.2071 33.2239 23.0369 33.2239 22.6964L34.3382 22.6964C34.3382 23.1483 34.1927 23.5105 33.9018 23.7829C33.6108 24.049 33.1992 24.1821 32.6668 24.1821C32.1344 24.1821 31.7227 24.049 31.4318 23.7829C31.1408 23.5105 30.9953 23.1483 30.9953 22.6964Z" fill="white"/>
</g>
<defs>
<clipPath id="clip0">
<path d="M0 47L-2.02946e-06 0.57143L40 0.571428L40 47L0 47Z" fill="white"/>
</clipPath>
</defs>
</svg>
