<svg width="40" height="40" viewBox="0 0 40 40" fill="none" xmlns="http://www.w3.org/2000/svg">
<mask id="mask0" mask-type="alpha" maskUnits="userSpaceOnUse" x="0" y="0" width="40" height="40">
<circle cx="20" cy="20" r="20" fill="#C4C4C4"/>
</mask>
<g mask="url(#mask0)">
<circle cx="20" cy="20" r="20" fill="#333333"/>
<path fill-rule="evenodd" clip-rule="evenodd" d="M14.2693 3.77315C11.9353 3.69644 9.45403 3.6149 7.41625 3.36017L7.58322 2.02441C9.56576 2.27223 11.9217 2.34898 14.2117 2.42359C15.4485 2.46388 16.6661 2.50355 17.7952 2.5692C19.3653 2.6605 20.7891 2.80446 21.7724 3.09738C22.2529 3.24053 22.7311 3.44745 23.051 3.78626C23.2217 3.96715 23.3557 4.19467 23.4059 4.46824C23.4559 4.7404 23.4135 5.00535 23.3181 5.24702C23.2137 5.51169 23.0256 5.81352 22.8061 6.12359C22.5795 6.44379 22.2905 6.81246 21.9548 7.21836C21.2832 8.03039 20.401 9.01989 19.4039 10.1155C18.8076 10.7708 18.1695 11.4648 17.5078 12.1846C15.9479 13.8813 14.2565 15.7209 12.67 17.5339C10.4039 20.1236 8.40096 22.6047 7.32698 24.481C6.7777 25.4406 6.5382 26.1315 6.5384 26.554C6.53849 26.7403 6.5851 26.8184 6.61985 26.8572C6.65972 26.9016 6.76465 26.983 7.03495 27.0286C8.19729 27.225 9.57492 26.6042 11.1694 25.3276C12.7363 24.073 14.3482 22.322 15.9559 20.5631C15.9997 20.5152 16.0435 20.4672 16.0874 20.4193C17.6284 18.733 19.1728 17.043 20.6047 15.9137C21.3423 15.3318 22.0944 14.8621 22.8416 14.6279C23.6069 14.3879 24.3967 14.3884 25.1332 14.7956C26.3465 15.4665 27.5979 16.8271 28.7194 18.411C29.8542 20.0138 30.9082 21.9202 31.7058 23.7688C32.4988 25.6065 33.061 27.4388 33.1711 28.8848C33.2258 29.6025 33.1753 30.2967 32.9252 30.8601C32.6567 31.4649 32.1632 31.897 31.4523 32.0108C30.3641 32.1849 28.9095 31.9076 27.4255 31.5078C26.2475 31.1906 24.9672 30.7708 23.7208 30.3623C23.3698 30.2472 23.0215 30.133 22.679 30.0223C21.0963 29.5105 19.6444 29.0747 18.5133 28.9066C17.9459 28.8222 17.511 28.814 17.2042 28.871C16.9061 28.9265 16.8116 29.025 16.7722 29.0934C16.768 29.1007 16.7164 29.2162 16.8071 29.5596C16.8925 29.8829 17.0764 30.2998 17.36 30.799C17.9248 31.7928 18.8165 32.9944 19.8422 34.2292C21.8914 36.6962 24.3902 39.1946 25.6303 40.2583L24.7538 41.2801C23.4479 40.1598 20.8967 37.6055 18.8066 35.0893C17.7626 33.8324 16.8124 32.5598 16.1897 31.4641C15.8796 30.9184 15.6333 30.3867 15.5056 29.9035C15.3832 29.4403 15.3354 28.8913 15.6054 28.422C15.9088 27.8948 16.4286 27.6461 16.958 27.5476C17.4785 27.4507 18.0839 27.4818 18.7111 27.575C19.969 27.7619 21.523 28.2338 23.0931 28.7414C23.4488 28.8564 23.8059 28.9734 24.1623 29.0903C25.4031 29.4969 26.6361 29.9011 27.7756 30.208C29.2682 30.6101 30.4672 30.8051 31.2395 30.6815C31.4589 30.6464 31.5934 30.5424 31.6949 30.3139C31.8147 30.0439 31.8761 29.6074 31.8289 28.987C31.7351 27.7566 31.238 26.0825 30.4698 24.3021C29.7063 22.5326 28.6972 20.7092 27.6207 19.1889C26.5309 17.6497 25.4227 16.4939 24.4817 15.9736C24.141 15.7852 23.7477 15.7545 23.2442 15.9124C22.7226 16.0759 22.1203 16.4327 21.4383 16.9706C20.0942 18.0308 18.6128 19.6516 17.0292 21.3842L16.9495 21.4714C15.359 23.2114 13.6748 25.046 12.0108 26.3784C10.3743 27.6887 8.58604 28.6559 6.81068 28.356C6.34656 28.2775 5.92288 28.0963 5.61769 27.756C5.30736 27.4099 5.19244 26.9811 5.19225 26.5547C5.19187 25.7517 5.5968 24.7939 6.15867 23.8123C7.307 21.806 9.39322 19.2345 11.657 16.6475C13.2548 14.8214 14.9655 12.9607 16.53 11.2591C17.1885 10.5429 17.821 9.85484 18.4083 9.20947C19.4038 8.11562 20.2676 7.14615 20.9174 6.36043C21.2424 5.96746 21.508 5.62756 21.7074 5.34584C21.914 5.05399 22.0235 4.86055 22.0659 4.75295C22.0721 4.73722 22.0758 4.7253 22.0779 4.71677C22.0763 4.71486 22.0743 4.71274 22.0721 4.71039C22.0022 4.63631 21.8069 4.51228 21.3881 4.3875C20.5725 4.14455 19.2933 4.00474 17.717 3.91308C16.6637 3.85184 15.4865 3.81315 14.2693 3.77315ZM22.0877 4.72947C22.0877 4.72947 22.0876 4.72929 22.0874 4.72893L22.0877 4.72947ZM22.0808 4.70163C22.0808 4.70046 22.0809 4.69985 22.0809 4.69984C22.0809 4.69983 22.0809 4.70041 22.0808 4.70163Z" fill="#008066"/>
<path d="M1.6039 22.3077V17.4615H3.4039L4.40774 19.9539H4.58082L5.58467 17.4615H7.38467V22.3077H6.1039V19.5385L6.20774 18.9154H6.13851L5.2039 21.2H3.78467L2.85005 18.9154H2.78082L2.88467 19.5385V22.3077H1.6039Z" fill="white"/>
<path d="M7.83359 22.3077L9.14897 17.4615H11.5028L12.8182 22.3077H11.5028L11.2605 21.3385H9.39128L9.14897 22.3077H7.83359ZM9.6682 20.2308H10.9836L10.5682 18.6385H10.0836L9.6682 20.2308Z" fill="white"/>
<path d="M13.2663 22.3077V17.4615H15.6202C16.2155 17.4615 16.6978 17.6323 17.0671 17.9739C17.4409 18.3108 17.6278 18.7285 17.6278 19.2269C17.6278 19.7254 17.4409 20.1454 17.0671 20.4869C16.6978 20.8239 16.2155 20.9923 15.6202 20.9923H14.5471V22.3077H13.2663ZM14.5471 19.8154H15.5855C15.8255 19.8154 16.0055 19.7623 16.1255 19.6562C16.2502 19.55 16.3125 19.4069 16.3125 19.2269C16.3125 19.0469 16.2502 18.9039 16.1255 18.7977C16.0055 18.6915 15.8255 18.6385 15.5855 18.6385H14.5471V19.8154Z" fill="white"/>
<path d="M18.2828 22.3077V17.4615H19.5636V21.1308H20.8098V17.4615H22.0905V21.1308H23.3298V17.4615H24.6175V22.3077H18.2828Z" fill="white"/>
<path d="M25.5169 22.3077V17.4615H27.8708C28.4661 17.4615 28.9485 17.6323 29.3177 17.9739C29.6915 18.3108 29.8785 18.7285 29.8785 19.2269C29.8785 19.7254 29.6915 20.1454 29.3177 20.4869C28.9485 20.8239 28.4661 20.9923 27.8708 20.9923H26.7977V22.3077H25.5169ZM26.7977 19.8154H27.8361C28.0761 19.8154 28.2561 19.7623 28.3761 19.6562C28.5008 19.55 28.5631 19.4069 28.5631 19.2269C28.5631 19.0469 28.5008 18.9039 28.3761 18.7977C28.2561 18.6915 28.0761 18.6385 27.8361 18.6385H26.7977V19.8154Z" fill="white"/>
<path d="M29.9136 17.4615H31.2636L32.0598 19.5385H32.579L33.3751 17.4615H34.6905L32.8213 22.3077H31.5059L32.129 20.7154H31.1944L29.9136 17.4615Z" fill="white"/>
<path d="M34.6554 18.6385V17.4615H38.9823V18.6385H37.4592V22.3077H36.1785V18.6385H34.6554Z" fill="white"/>
</g>
</svg>
